<?xml version="1.0" standalone="no"?>
<!DOCTYPE svg PUBLIC "-//W3C//DTD SVG 20010904//EN"
 "http://www.w3.org/TR/2001/REC-SVG-20010904/DTD/svg10.dtd">
<svg version="1.0" xmlns="http://www.w3.org/2000/svg"
 width="200.000000pt" height="200.000000pt" viewBox="0 0 200.000000 200.000000"
 preserveAspectRatio="xMidYMid meet">
<metadata>
Created by potrace 1.11, written by Peter Selinger 2001-2013
</metadata>
<g transform="translate(0.000000,200.000000) scale(0.100000,-0.100000)"
fill="#000000" stroke="none">
<path d="M0 1000 l0 -940 1000 0 1000 0 0 940 0 940 -1000 0 -1000 0 0 -940z
m543 160 c2 -165 2 -165 25 -168 14 -2 30 4 39 15 8 10 12 12 8 3 -4 -8 1 -6
9 4 9 11 16 26 16 33 0 7 7 13 15 13 8 0 15 7 15 15 0 9 7 18 15 21 8 4 15 14
15 24 0 24 44 40 108 37 41 -2 49 -4 37 -13 -8 -6 -15 -16 -15 -21 0 -5 -11
-16 -25 -23 -14 -7 -25 -16 -25 -19 0 -10 -60 -73 -60 -64 0 4 -5 1 -10 -7
-15 -23 -12 -50 6 -50 10 0 14 -7 12 -22 -2 -13 9 -34 30 -57 18 -20 35 -46
38 -58 4 -13 9 -23 13 -23 4 0 15 -15 25 -32 11 -18 26 -41 35 -50 43 -46 44
-45 -34 -47 -67 -2 -75 0 -86 21 -7 12 -18 29 -26 36 -7 7 -16 25 -19 39 -4
14 -16 35 -26 45 -15 15 -17 22 -7 34 9 11 8 14 -10 14 -12 0 -21 6 -21 15 0
11 -11 15 -40 15 -22 0 -40 -5 -40 -11 0 -5 4 -7 10 -4 6 3 7 -1 4 -9 -3 -9
-10 -14 -14 -11 -14 9 -21 -32 -19 -107 l2 -73 -59 0 -59 0 -3 315 c-1 173 0
320 2 327 3 7 26 11 61 10 l56 -2 2 -165z m569 94 c4 -81 12 -94 61 -94 23 0
27 -4 27 -28 0 -28 -1 -29 -45 -22 -53 8 -48 26 -45 -175 1 -117 4 -132 23
-152 11 -13 31 -23 44 -23 13 0 24 -4 24 -10 1 -5 2 -14 3 -18 0 -5 14 -20 30
-33 l29 -25 -96 -3 c-88 -2 -97 0 -107 19 -6 11 -15 18 -21 15 -5 -4 -14 6
-19 22 -6 15 -15 36 -20 45 -6 10 -10 77 -10 150 0 141 -10 183 -45 183 -10 0
-20 6 -23 13 -2 6 3 12 12 12 8 0 20 8 25 18 9 13 12 14 19 4 6 -8 9 21 10 75
0 48 1 91 1 96 1 4 28 7 60 7 l59 0 4 -76z m508 -135 c0 -11 4 -18 9 -15 5 4
16 3 25 0 13 -5 14 -9 5 -20 -9 -11 -8 -14 5 -14 9 0 16 -8 16 -17 0 -14 2
-15 9 -5 6 10 10 9 14 -7 3 -12 1 -21 -4 -22 -74 -5 -109 0 -130 20 -12 11
-29 21 -36 21 -7 0 -13 5 -13 10 0 14 -54 12 -68 -2 -9 -9 -12 -8 -12 5 0 11
-5 14 -17 10 -12 -5 -13 -8 -4 -11 9 -3 5 -10 -11 -21 -12 -9 -23 -25 -23 -36
0 -11 -5 -19 -11 -18 -7 1 -11 -27 -11 -82 0 -47 3 -82 8 -79 5 2 15 -10 23
-29 12 -31 19 -35 66 -41 61 -8 120 9 120 35 0 14 11 18 61 21 33 1 62 2 63 0
2 -1 1 -14 -2 -28 -3 -17 -9 -23 -19 -20 -10 4 -13 1 -8 -13 4 -14 0 -21 -15
-26 -11 -3 -20 -11 -20 -16 0 -6 -8 -8 -18 -5 -11 4 -24 -3 -35 -18 -17 -22
-25 -24 -117 -25 -111 -2 -140 7 -140 44 0 14 -4 25 -10 25 -23 0 -48 41 -54
86 -4 27 -9 67 -12 90 -4 30 -2 45 11 57 9 10 12 17 6 17 -18 0 -13 35 9 63
11 14 20 29 20 34 0 4 11 13 25 20 20 9 25 8 25 -3 0 -16 16 -19 25 -4 3 6 1
10 -4 10 -6 0 -11 6 -11 14 0 12 24 15 130 15 125 1 130 0 130 -20z"/>
<path d="M768 1143 c-28 -7 -21 -18 11 -18 19 0 27 4 24 13 -5 12 -7 13 -35 5z"/>
<path d="M482 1095 c0 -16 2 -22 5 -12 2 9 2 23 0 30 -3 6 -5 -1 -5 -18z"/>
<path d="M578 963 c7 -3 16 -2 19 1 4 3 -2 6 -13 5 -11 0 -14 -3 -6 -6z"/>
<path d="M720 866 c0 -9 5 -16 10 -16 6 0 10 4 10 9 0 6 -4 13 -10 16 -5 3
-10 -1 -10 -9z"/>
<path d="M740 825 c0 -9 5 -15 11 -13 6 2 11 8 11 13 0 5 -5 11 -11 13 -6 2
-11 -4 -11 -13z"/>
<path d="M481 814 c0 -11 3 -14 6 -6 3 7 2 16 -1 19 -3 4 -6 -2 -5 -13z"/>
<path d="M1010 1131 c0 -5 7 -12 16 -15 14 -5 15 -4 4 9 -14 17 -20 19 -20 6z"/>
<path d="M1150 1130 c0 -5 5 -10 11 -10 5 0 7 5 4 10 -3 6 -8 10 -11 10 -2 0
-4 -4 -4 -10z"/>
<path d="M970 1109 c0 -5 5 -7 10 -4 6 3 10 8 10 11 0 2 -4 4 -10 4 -5 0 -10
-5 -10 -11z"/>
<path d="M1060 1109 c0 -5 5 -7 10 -4 6 3 10 8 10 11 0 2 -4 4 -10 4 -5 0 -10
-5 -10 -11z"/>
<path d="M1560 755 c-7 -9 -8 -15 -2 -15 5 0 12 7 16 15 3 8 4 15 2 15 -2 0
-9 -7 -16 -15z"/>
</g>
</svg>
